#!OML:ASF X:\für Bonn\!DataBase\2005_08_12_Daniel\c3d\Daniel.ASF
:FULLY-SPECIFIED
:DEGREES
170
root 2.99043 17.9245 -7.32817 -542.959 -5.55054 -525.092
lowerback 8.1439 1.8075 5.92737
upperback 0.880433 2.85616 0.593486
thorax -3.38773 1.29748 -3.01377
lowerneck -3.98392 7.54975 -0.921724
upperneck 1.77599 10.1724 -7.37038
head 1.601 4.85305 -1.88671
rclavicle 1.86858e-014 -5.40694e-014
rhumerus -59.3939 23.8528 -108.121
rradius 99.9906
rwrist 1.91637
rhand -24.8547 35.0411
rfingers 7.12502
rthumb 1.65185 5.06774
lclavicle 1.86858e-014 -5.40694e-014
lhumerus -81.6357 -5.90819 97.5371
lradius 110.121
lwrist 19.1778
lhand -2.29573 -11.4759
lfingers 7.12502
lthumb 23.3897 17.1228
rfemur 17.4701 1.17999 26.9648
rtibia 29.2677
rfoot 12.2579 -7.33969
rtoes -15.7131
lfemur -29.5858 6.27227 -22.6541
ltibia 50.7172
lfoot -13.2327 -4.48542
ltoes -13.5946
171
root 2.97184 17.9289 -7.65228 -542.951 -6.342 -524.806
lowerback 7.87579 1.75424 6.06807
upperback 0.751513 2.79236 0.565042
thorax -3.37053 1.26598 -3.10785
lowerneck -3.93641 7.46162 -0.971167
upperneck 1.80176 10.0549 -7.36942
head 1.59398 4.79369 -1.88358
rclavicle -3.77691e-015 -2.38542e-014
rhumerus -59.9622 24.2799 -108.79
rradius 100.401
rwrist 1.51489
rhand -24.8061 34.9273
rfingers 7.12502
rthumb 1.69882 4.9543
lclavicle -3.77691e-015 -2.38542e-014
lhumerus -81.5378 -5.73267 97.1259
lradius 110.647
lwrist 19.1678
lhand -2.21048 -11.7657
lfingers 7.12502
lthumb 23.4715 16.8225
rfemur 17.5658 0.401626 26.9475
rtibia 30.3949
rfoot 10.9832 -7.49348
rtoes -15.4734
lfemur -29.482 6.00717 -22.7351
ltibia 48.3336
lfoot -13.5845 -2.70425
ltoes -14.4307
172
root 2.95036 17.9229 -7.97391 -542.98 -7.09418 -524.521
lowerback 7.68269 1.69592 6.24089
upperback 0.654185 2.72492 0.517196
thorax -3.36043 1.23132 -3.24229
lowerneck -4.00592 7.37919 -1.03046
upperneck 1.83818 9.95108 -7.33282
head 1.60851 4.73948 -1.86236
rclavicle -3.24019e-014 -7.95139e-015
rhumerus -60.3807 24.5333 -109.364
rradius 100.549
rwrist 1.14145
rhand -24.8758 34.6813
rfingers 7.12502
rthumb 1.63147 4.70782
lclavicle -3.24019e-014 -7.95139e-015
lhumerus -81.271 -5.52102 96.6377
lradius 111.025
lwrist 19.2068
lhand -2.19853 -12.1092
lfingers 7.12502
lthumb 23.483 16.4776
rfemur 17.3624 -0.306915 26.9149
rtibia 31.9933
rfoot 9.61303 -7.52357
rtoes -15.5965
lfemur -29.3691 5.76628 -22.8335
ltibia 46.2371
lfoot -13.9299 -0.834229
ltoes -15.3669
173
root 2.92921 17.8982 -8.29128 -543.079 -7.83833 -524.252
lowerback 7.58604 1.62316 6.37294
upperback 0.58389 2.6387 0.513115
thorax -3.38238 1.18601 -3.31012
lowerneck -4.01289 7.32114 -1.16571
upperneck 1.78914 9.87278 -7.36816
head 1.58563 4.69796 -1.85435
rclavicle 1.98785e-015 7.95139e-015
rhumerus -60.7817 24.7011 -109.785
rradius 100.449
rwrist 0.900671
rhand -25.1498 34.2965
rfingers 7.12502
rthumb 1.36694 4.32112
lclavicle 1.98785e-015 7.95139e-015
lhumerus -80.8322 -5.18804 96.1852
lradius 111.226
lwrist 19.1753
lhand -2.31251 -12.4419
lfingers 7.12502
lthumb 23.3736 16.1588
rfemur 16.9782 -0.936706 26.88
rtibia 33.9981
rfoot 8.41568 -7.57405
rtoes -15.2649
lfemur -29.2452 5.83276 -23.0036
ltibia 44.4795
lfoot -14.1718 0.695076
ltoes -16.1556
174
root 2.90946 17.8527 -8.60482 -543.274 -8.56507 -524.031
lowerback 7.59457 1.53775 6.46929
upperback 0.561935 2.53559 0.48486
thorax -3.4153 1.13243 -3.38462
lowerneck -4.07478 7.28276 -1.299
upperneck 1.74701 9.82401 -7.36743
head 1.57349 4.67132 -1.83201
rclavicle -1.31198e-014 7.31528e-014
rhumerus -61.0876 24.7216 -110.103
rradius 100.143
rwrist 0.707983
rhand -25.5333 33.7613
rfingers 7.12502
rthumb 0.996514 3.78384
lclavicle -1.31198e-014 7.31528e-014
lhumerus -80.2906 -4.84635 95.6953
lradius 111.42
lwrist 19.1746
lhand -2.49584 -12.5499
lfingers 7.12502
lthumb 23.1977 16.0731
rfemur 16.5315 -1.61263 26.7363
rtibia 36.2438
rfoot 7.57439 -7.41561
rtoes -14.9552
lfemur -29.052 6.14495 -23.2717
ltibia 43.113
lfoot -14.2878 1.66897
ltoes -15.8815
175
root 2.89093 17.7912 -8.91287 -543.541 -9.26097 -523.83
lowerback 7.70116 1.4508 6.53878
upperback 0.579348 2.43187 0.468866
thorax -3.46408 1.07813 -3.43393
lowerneck -4.1482 7.25385 -1.50568
upperneck 1.6677 9.78831 -7.31233
head 1.54424 4.65313 -1.77996
rclavicle 2.72335e-014 -2.22639e-014
rhumerus -61.3221 24.5405 -110.265
rradius 99.6386
rwrist 0.656574
rhand -25.941 33.3177
rfingers 7.12502
rthumb 0.6027 3.3388
lclavicle 2.72335e-014 -2.22639e-014
lhumerus -79.6284 -4.45437 95.2404
lradius 111.559
lwrist 19.0683
lhand -2.79734 -12.5101
lfingers 7.12502
lthumb 22.9084 16.1491
rfemur 16.0284 -2.34665 26.471
rtibia 38.6664
rfoot 6.96818 -6.81405
rtoes -15.4398
lfemur -28.807 6.60392 -23.5692
ltibia 42.1763
lfoot -14.3898 2.35824
ltoes -14.8449
176
root 2.87295 17.7175 -9.21634 -543.903 -9.9042 -523.65
lowerback 7.92208 1.36819 6.59642
upperback 0.642374 2.33703 0.440397
thorax -3.52839 1.02769 -3.49323
lowerneck -4.21777 7.24137 -1.72988
upperneck 1.55544 9.77369 -7.2099
head 1.50054 4.64855 -1.71014
rclavicle -1.45113e-014 -3.97569e-014
rhumerus -61.458 24.1343 -110.295
rradius 98.9311
rwrist 0.816666
rhand -26.3572 32.9724
rfingers 7.12502
rthumb 0.200746 2.99279
lclavicle -1.45113e-014 -3.97569e-014
lhumerus -78.9223 -4.03701 94.7842
lradius 111.763
lwrist 18.9986
lhand -3.13924 -12.3275
lfingers 7.12502
lthumb 22.5803 16.3719
rfemur 15.5284 -3.07874 26.1082
rtibia 41.2245
rfoot 6.41168 -6.08018
rtoes -16.4695
lfemur -28.4826 7.05154 -23.8504
ltibia 41.6532
lfoot -14.3916 2.72507
ltoes -11.8173
177
root 2.85486 17.6395 -9.51538 -544.352 -10.5082 -523.521
lowerback 8.26016 1.29258 6.57513
upperback 0.754733 2.2488 0.432626
thorax -3.60983 0.980797 -3.48987
lowerneck -4.2628 7.23759 -2.0817
upperneck 1.35383 9.76741 -7.04999
head 1.41357 4.652 -1.60376
rclavicle -8.74653e-015 1.27222e-014
rhumerus -61.4895 23.5708 -110.134
rradius 98.0315
rwrist 1.09117
rhand -26.772 32.8154
rfingers 7.12502
rthumb -0.19988 2.83578
lclavicle -8.74653e-015 1.27222e-014
lhumerus -78.1221 -3.59864 94.4174
lradius 111.951
lwrist 18.8734
lhand -3.58139 -12.0673
lfingers 7.12502
lthumb 22.1559 16.6831
rfemur 14.9272 -3.71928 25.6477
rtibia 43.9215
rfoot 5.95209 -5.27623
rtoes -17.8637
lfemur -28.0488 7.46854 -24.1373
ltibia 41.5351
lfoot -14.3113 2.67083
ltoes -6.63881
